<?xml version="1.0" encoding="iso-8859-1"?>
<!-- Uploaded to: SVG Repo, www.svgrepo.com, Generator: SVG Repo Mixer Tools -->
<svg height="800px" width="800px" version="1.1" id="Layer_1" xmlns="http://www.w3.org/2000/svg" xmlns:xlink="http://www.w3.org/1999/xlink" 
	 viewBox="0 0 503.406 503.406" xml:space="preserve">
<g transform="translate(1 1)">
	<path style="fill:#ECF4F7;" d="M252.41,498.139H4.09c0,0,34.133-68.267,102.4-68.267
		C106.49,429.873,174.757,481.073,252.41,498.139z M499.023,498.139H252.41c75.947-17.067,144.213-68.267,144.213-68.267
		C464.89,429.873,499.023,498.139,499.023,498.139z"/>
	<path style="fill:#FFD0A1;" d="M301.903,352.219c22.187-20.48,42.667-47.787,52.053-66.56c-2.56-12.8-4.267-25.6,0-34.133
		c8.533-17.067-8.533-42.667,0-59.733s0-42.667,0-42.667s-25.6,0-51.2-8.533c0,0-29.013-11.093-51.2-23.893l0,0
		c-25.6,16.213-51.2,23.893-51.2,23.893c-25.6,8.533-51.2,8.533-51.2,8.533s-8.533,25.6,0,42.667
		c8.533,17.067-8.533,42.667,0,59.733c4.267,8.533,2.56,21.333,0,34.133c9.387,19.627,29.867,46.933,52.053,66.56l-0.853,0.853
		v42.667c0,14.507-29.867,23.04-55.467,28.16c-20.48,4.267-38.4,5.973-38.4,5.973s68.267,51.2,145.92,68.267
		c75.947-17.067,144.213-68.267,144.213-68.267s-18.773-1.707-39.253-5.973c-25.6-5.12-54.613-13.653-54.613-28.16v-42.667
		L301.903,352.219z"/>
	<path style="fill:#FFE079;" d="M271.183,112.433c-6.827,0.853-13.653,1.707-19.627,1.707v1.707l0,0
		c22.187,13.653,51.2,23.893,51.2,23.893c25.6,8.533,51.2,8.533,51.2,8.533s8.533,25.6,0,42.667s8.533,42.667,0,59.733
		c-4.267,8.533-2.56,21.333,0,34.133c2.56,12.8,4.267,25.6,0,34.133c-8.533,17.067,0,68.267,0,68.267l4.267,34.133l-0.853,2.56
		c20.48,4.267,39.253,5.973,39.253,5.973s-8.533-25.6,0-42.667c8.533-17.067-8.533-42.667,0-59.733
		c8.533-17.067-8.533-34.133,0-51.2c8.533-17.067,0-68.267,0-68.267c7.68-15.36,8.533-76.8,8.533-76.8l-11.093,11.093l-1.707-1.707
		c-0.853-15.36-4.267-34.987-4.267-34.987s-3.413-20.48-15.36-43.52l-1.707,0.853C371.023,62.939,324.09,103.046,271.183,112.433
		c52.053-9.387,99.84-49.493,99.84-49.493l1.707-0.853c-17.067-30.72-52.053-65.707-121.173-55.467
		c-65.707-15.36-101.547,23.04-120.32,56.32h0.853c0,0,46.933,40.107,99.84,49.493c-52.053-9.387-99.84-49.493-99.84-49.493h-0.853
		c-12.8,22.187-16.213,42.667-16.213,42.667s-5.12,14.507-6.827,33.28l-0.853,0.853l-9.387-9.387c0,0,0.853,61.44,8.533,76.8
		c0,0-8.533,51.2,0,68.267c8.533,17.067-8.533,34.133,0,51.2c8.533,17.067-8.533,42.667,0,59.733c8.533,17.067,0,42.667,0,42.667
		s17.92-1.707,38.4-5.973v-0.853l4.267-36.693c0,0,8.533-51.2,0-68.267c-4.267-8.533-2.56-21.333,0-34.133
		c2.56-12.8,4.267-25.6,0-34.133c-8.533-17.067,8.533-42.667,0-59.733c-8.533-17.067,0-42.667,0-42.667s25.6,0,51.2-8.533
		c0,0,25.6-7.68,51.2-23.893l0,0c-6.827,0-13.653-0.853-19.627-1.707H271.183z"/>
	<path style="fill:#FFD0A1;" d="M405.157,131.206c0,0-0.853,61.44-8.533,76.8c-8.533,17.067-17.067,17.067-17.067,17.067v-68.267
		l14.507-14.507L405.157,131.206z M123.557,225.073c0,0-8.533,0-17.067-17.067c-7.68-15.36-8.533-76.8-8.533-76.8l9.387,9.387
		l16.213,16.213V225.073z"/>
</g>
<path style="fill:#51565F;" d="M253.41,503.406h-0.853c-71.68-16.213-136.533-61.44-145.92-68.267
	c-64,0.853-97.28,64.853-97.28,65.707c-0.853,1.707-3.413,2.56-5.973,1.707c-1.707-0.853-2.56-3.413-1.707-5.973
	c1.707-2.56,34.987-68.267,103.253-70.827c1.707-6.827,5.12-24.747-0.853-36.693c-5.12-10.24-2.56-21.333,0-32.427
	c1.707-10.24,4.267-19.627,0-27.307c-5.12-10.24-2.56-19.627,0-28.16c1.707-7.68,4.267-15.36,0-23.04
	c-8.533-17.067-1.707-60.587-0.853-69.973c-7.68-17.067-8.533-70.827-8.533-77.653c0-1.707,0.853-3.413,2.56-4.267
	c1.707-0.853,3.413,0,4.267,0.853l25.6,25.6c1.707,1.707,1.707,4.267,0,5.973c-1.707,1.707-4.267,1.707-5.973,0l-17.92-17.92
	c0.853,20.48,2.56,54.613,7.68,64l0,0c6.827,13.653,13.653,14.507,13.653,14.507c2.56,0,4.267,2.56,4.267,4.267
	s-1.707,4.267-4.267,4.267c-0.853,0-7.68,0-14.507-9.387c-1.707,17.067-4.267,44.373,0.853,54.613c5.12,10.24,2.56,19.627,0,28.16
	c-1.707,7.68-4.267,15.36,0,23.04c5.12,10.24,2.56,21.333,0,32.427c-1.707,10.24-4.267,19.627,0,27.307
	c7.68,15.36,3.413,34.987,0.853,42.667c12.8,9.387,73.387,50.347,140.8,65.707c65.707-15.36,127.147-56.32,139.093-65.707
	c-1.707-7.68-5.973-28.16,0.853-42.667c3.413-6.827,1.707-17.067,0-27.307c-2.56-11.093-4.267-23.04,0-32.427
	c3.413-6.827,1.707-14.507,0-23.04c-2.56-8.533-4.267-18.773,0-28.16c5.12-10.24,3.413-36.693,0.853-54.613
	c-6.827,8.533-13.653,9.387-14.507,9.387c-2.56,0-4.267-1.707-4.267-4.267s1.707-4.267,4.267-4.267c0,0,6.827-0.853,13.653-14.507
	l0,0c5.12-10.24,6.827-43.52,7.68-64l-17.92,17.92c-1.707,1.707-4.267,1.707-5.973,0s-1.707-4.267,0-5.973l25.6-25.6
	c0.853-0.853,3.413-1.707,4.267-0.853c1.707,0.853,2.56,2.56,2.56,4.267c0,5.973-0.853,59.733-8.533,77.653
	c1.707,9.387,7.68,52.907-0.853,69.973c-3.413,6.827-1.707,14.507,0,23.04c2.56,8.533,4.267,18.773,0,28.16
	c-3.413,6.827-1.707,17.067,0,27.307c2.56,11.093,4.267,23.04,0,32.427c-5.973,11.947-2.56,29.867-0.853,36.693
	c68.267,1.707,101.547,67.413,103.253,70.827c0.853,1.707,0,4.267-1.707,5.973c-1.707,0.853-4.267,0-5.973-1.707
	c0-0.853-33.28-64.853-97.28-65.707c-9.387,6.827-74.24,52.053-145.067,68.267C254.263,503.406,253.41,503.406,253.41,503.406z
	 M363.49,426.606c-6.827,0-64-0.853-64-29.867c0-2.56,1.707-4.267,4.267-4.267c2.56,0,4.267,1.707,4.267,4.267
	c0,17.067,40.96,21.333,55.467,21.333c2.56,0,4.267,1.707,4.267,4.267S366.05,426.606,363.49,426.606z M141.623,426.606
	c-2.56,0-4.267-1.707-4.267-4.267s1.707-4.267,4.267-4.267c14.507,0,55.467-4.267,55.467-21.333c0-2.56,1.707-4.267,4.267-4.267
	s4.267,1.707,4.267,4.267C205.623,425.753,148.45,426.606,141.623,426.606z M354.957,392.473c-1.707,0-4.267-1.707-4.267-3.413
	c-0.853-5.12-8.533-52.907,0-70.827c2.56-5.12,2.56-11.947,1.707-19.627c-20.48,34.133-66.56,85.333-99.84,85.333
	s-79.36-51.2-99.84-85.333c-0.853,7.68-0.853,14.507,1.707,19.627c8.533,17.92,1.707,65.707,0,70.827c0,2.56-2.56,4.267-5.12,3.413
	c-2.56,0-4.267-2.56-3.413-5.12c2.56-13.653,6.827-52.907,0-65.707c-5.12-9.387-2.56-23.04,0-36.693l0,0
	c1.707-11.947,4.267-23.893,0-31.573c-5.12-10.24-2.56-21.333,0-32.427c1.707-10.24,4.267-19.627,0-27.307
	c-9.387-18.773-0.853-45.227,0-46.08c0.853-1.707,2.56-2.56,4.267-2.56c0,0,25.6,0,49.493-8.533c2.56-0.853,4.267,0.853,5.12,2.56
	c0.853,2.56-0.853,4.267-2.56,5.12c-20.48,6.827-41.813,8.533-49.493,8.533c-1.707,6.827-5.12,24.747,0.853,36.693
	c5.12,10.24,2.56,21.333,0,32.427c-1.707,10.24-4.267,19.627,0,27.307c5.12,9.387,2.56,22.187,0.853,34.987
	c18.773,35.84,68.267,90.453,98.133,90.453s79.36-54.613,98.133-90.453c-1.707-12.8-4.267-25.6,0.853-34.987
	c3.413-6.827,1.707-17.067,0-27.307c-2.56-11.093-4.267-23.04,0-32.427c5.973-11.947,2.56-29.867,0.853-36.693
	c-7.68,0-28.16-1.707-49.493-8.533c-2.56-0.853-3.413-3.413-2.56-5.12c0.853-2.56,3.413-3.413,5.12-2.56
	c24.747,8.533,49.493,8.533,49.493,8.533c1.707,0,3.413,0.853,4.267,2.56c0,0.853,9.387,27.307,0,46.08
	c-3.413,6.827-1.707,17.067,0,27.307c2.56,11.093,4.267,23.04,0,32.427c-3.413,7.68-1.707,19.627,0,31.573l0,0
	c2.56,13.653,4.267,27.307,0,36.693c-6.827,12.8-1.707,52.053,0,65.707C359.223,389.913,358.37,392.473,354.957,392.473
	C355.81,392.473,354.957,392.473,354.957,392.473z M252.557,324.206c-18.773,0-28.16-9.387-29.013-9.387
	c-1.707-1.707-1.707-4.267,0-5.973c1.707-1.707,4.267-1.707,5.973,0c0,0,7.68,7.68,22.187,7.68c14.507,0,22.187-6.827,22.187-7.68
	c1.707-1.707,4.267-1.707,5.973,0c1.707,1.707,1.707,4.267,0,5.973C280.717,314.819,271.33,324.206,252.557,324.206z
	 M295.223,230.339c-2.56,0-4.267-1.707-4.267-4.267v-11.947c-6.827,1.707-8.533,5.973-9.387,5.973
	c-0.853,1.707-3.413,2.56-5.973,1.707c-1.707-0.853-2.56-3.413-1.707-5.973c0-0.853,5.973-11.093,20.48-11.093
	c14.507,0,20.48,10.24,20.48,11.093c0.853,1.707,0,4.267-1.707,5.973c-1.707,0.853-4.267,0-5.973-1.707c0,0-2.56-4.267-9.387-5.973
	v11.947C299.49,228.633,297.783,230.339,295.223,230.339z M209.89,229.486c-2.56,0-4.267-1.707-4.267-4.267v-11.947
	c-6.827,1.707-8.533,5.973-9.387,5.973c-0.853,1.707-3.413,2.56-5.973,1.707c-1.707-0.853-2.56-3.413-1.707-5.973
	c0-0.853,5.973-11.093,20.48-11.093c14.507,0,20.48,10.24,20.48,11.093c0.853,1.707,0,4.267-1.707,5.973
	c-1.707,0.853-4.267,0-5.973-1.707c0,0-2.56-4.267-9.387-5.973v11.947C214.157,227.78,212.45,229.486,209.89,229.486z
	 M252.557,136.473c-2.56,0-4.267-1.707-4.267-4.267v-12.8c-51.2-1.707-100.693-38.4-114.347-49.493
	c-10.24,19.627-13.653,36.693-13.653,37.547c-0.853,2.56-2.56,3.413-5.12,3.413c-2.56-0.853-3.413-2.56-3.413-5.12
	c0.853-2.56,12.8-61.44,58.027-90.453c23.04-15.36,51.2-18.773,82.773-11.947l0,0c64-8.533,98.133,19.627,116.907,45.227
	c19.627,27.307,23.893,56.32,23.893,58.027c0,2.56-1.707,4.267-3.413,5.12c-2.56,0-4.267-1.707-5.12-3.413
	c0-1.707-2.56-18.773-12.8-37.547c-11.947,9.387-62.293,47.787-115.2,50.347v12.8C256.823,134.766,255.117,136.473,252.557,136.473z
	 M138.21,62.233c11.093,9.387,63.147,48.64,114.347,48.64c52.907,0,107.52-42.667,115.2-49.493
	C350.69,33.22,318.263,3.353,256.823,11.033v69.973c0,2.56-1.707,4.267-4.267,4.267c-2.56,0-4.267-1.707-4.267-4.267V11.033
	c-28.16-5.973-52.907-1.707-73.387,11.093C158.69,33.219,146.743,47.726,138.21,62.233z"/>
</svg>