<?xml version="1.0" encoding="iso-8859-1"?>
<!-- Uploaded to: SVG Repo, www.svgrepo.com, Generator: SVG Repo Mixer Tools -->
<svg height="800px" width="800px" version="1.1" id="Layer_1" xmlns="http://www.w3.org/2000/svg" xmlns:xlink="http://www.w3.org/1999/xlink" 
	 viewBox="0 0 504.014 504.014" xml:space="preserve">
<g transform="translate(1 1)">
	<path style="fill:#FFD0A1;" d="M396.12,199.807v42.667c0,9.387-7.68,17.067-17.067,17.067c0,0-8.533,51.2-25.6,76.8
		c0,0-17.067,8.533-25.6,8.533c0,0-17.92,1.707-33.28,1.707c-8.533-15.36-22.187-27.307-43.52-27.307s-34.987,11.947-44.373,28.16
		l-0.853-0.853c-22.187,0-31.573-1.707-31.573-1.707c-8.533,0-25.6-8.533-25.6-8.533c-17.067-25.6-25.6-76.8-25.6-76.8
		c-9.387,0-17.067-7.68-17.067-17.067v-42.667v-0.853c40.96,5.973,90.453,9.387,145.067,9.387s104.107-3.413,145.067-9.387V199.807z
		"/>
	<path style="fill:#AAB1BA;" d="M251.053,498.474H3.587l8.533-25.6c7.68-23.893,25.6-42.667,110.933-42.667h42.667l0.853-0.853
		C185.347,466.047,216.92,493.353,251.053,498.474z M489.987,472.874l8.533,25.6H251.053c34.133-5.12,65.707-32.427,84.48-69.12
		l0.853,0.853h42.667C464.387,430.207,482.307,448.98,489.987,472.874z"/>
	<path style="fill:#ECF4F7;" d="M174.253,344.874c0,0,9.387,1.707,31.573,1.707l0.853,0.853c8.533-15.36,22.187-28.16,44.373-28.16
		c21.333,0,34.987,11.947,43.52,27.307c15.36,0,33.28-1.707,33.28-1.707c8.533,0,25.6-8.533,25.6-8.533
		c3.413,33.28-3.413,65.707-17.92,93.013c-18.773,36.693-50.347,64-84.48,69.12c-34.133-5.12-65.707-32.427-84.48-69.12
		c-14.507-27.307-21.333-60.587-17.92-93.013C148.653,336.34,165.72,344.874,174.253,344.874"/>
	<path style="fill:#AAB1BA;" d="M351.747,112.767c-3.413-12.8-8.533-26.453-15.36-40.107l1.707-0.853c0,0,0,0,0.853,0
		c3.413,0.853,17.92,2.56,33.28,3.413h0.853c9.387,0,20.48-0.853,31.573-3.413c0-25.6-25.6-68.267-153.6-68.267
		c-53.76,0-83.627,59.733-98.133,104.96c-9.387,27.307-12.8,48.64-12.8,48.64s34.133,17.067,110.933,17.067
		c33.28,0,58.88-3.413,76.8-6.827c0,0,13.653-1.707,30.72-8.533c-16.213,6.827-30.72,8.533-30.72,8.533
		c-17.92,3.413-43.52,6.827-76.8,6.827c-76.8,0-110.933-17.067-110.933-17.067s3.413-21.333,12.8-48.64l-2.56,3.413
		c-14.507,0-27.307,1.707-27.307,1.707c-71.68,9.387-119.467,25.6-119.467,43.52c0,17.067,40.107,32.427,102.4,41.813
		c40.96,5.973,90.453,9.387,145.067,9.387s104.107-3.413,145.067-9.387c62.293-9.387,102.4-24.747,102.4-41.813
		c0-18.773-47.787-34.987-118.613-43.52c0,0-16.213-1.707-26.453-1.707L351.747,112.767L351.747,112.767z M361.987,157.14
		c-0.853,0.853-2.56,0.853-3.413,1.707L361.987,157.14z"/>
</g>
<path style="fill:#51565F;" d="M499.52,503.74c-1.707,0-3.413-0.853-4.267-2.56l-8.533-25.6
	c-6.827-20.48-20.48-40.107-106.667-40.107c-2.56,0-4.267-1.707-4.267-4.267c0-2.56,1.707-4.267,4.267-4.267
	c82.773,0,105.813,17.067,115.2,45.227l8.533,25.6c0.853,2.56-0.853,4.267-2.56,5.12C500.373,503.74,500.373,503.74,499.52,503.74z
	 M4.587,503.74c-0.853,0-0.853,0-1.707,0c-2.56-0.853-3.413-3.413-2.56-5.12l8.533-25.6c9.387-28.16,31.573-45.227,115.2-45.227
	c2.56,0,4.267,1.707,4.267,4.267c0,2.56-1.707,4.267-4.267,4.267c-86.187,0-99.84,19.627-106.667,40.107l-8.533,25.6
	C8,502.887,6.293,503.74,4.587,503.74z M252.053,503.74L252.053,503.74c-63.147-9.387-114.347-88.747-106.667-165.547
	c-14.507-23.04-23.04-62.293-24.747-74.24c-10.24-1.707-17.92-10.24-17.92-21.333v-17.067c0-2.56,1.707-4.267,4.267-4.267
	c2.56,0,4.267,1.707,4.267,4.267v17.067c0,6.827,5.973,12.8,12.8,12.8c1.707,0,4.267,1.707,4.267,3.413
	c0,0.853,8.533,49.493,24.747,74.24c5.12,2.56,17.067,7.68,23.04,7.68c2.56,0,4.267,1.707,4.267,4.267s-1.707,4.267-4.267,4.267
	c-5.973,0-16.213-3.413-22.187-5.973c-5.12,70.827,41.813,142.507,98.987,151.04c57.173-8.533,103.253-81.067,98.987-151.04
	c-5.973,2.56-15.36,5.973-22.187,5.973c-2.56,0-4.267-1.707-4.267-4.267s1.707-4.267,4.267-4.267c5.12,0,16.213-4.267,23.04-7.68
	c16.213-24.747,23.893-73.387,24.747-74.24c0-1.707,1.707-3.413,4.267-3.413c6.827,0,12.8-5.973,12.8-12.8v-17.067
	c0-2.56,1.707-4.267,4.267-4.267s4.267,1.707,4.267,4.267v17.067c0,10.24-7.68,19.627-17.92,21.333
	c-2.56,11.947-10.24,51.2-24.747,74.24C366.4,414.994,315.2,494.353,252.053,503.74L252.053,503.74z M192.32,418.407
	c-2.56,0-4.267-1.707-4.267-4.267c0-0.853,0.853-98.133,64-98.133s64,97.28,64,98.133c0,2.56-1.707,4.267-4.267,4.267l0,0
	c-2.56,0-4.267-1.707-4.267-4.267c0-0.853-0.853-89.6-55.467-89.6s-55.467,88.747-55.467,89.6
	C196.587,416.7,194.88,418.407,192.32,418.407z M260.587,358.674H243.52c-2.56,0-4.267-1.707-4.267-4.267s1.707-4.267,4.267-4.267
	h17.067c2.56,0,4.267,1.707,4.267,4.267S263.147,358.674,260.587,358.674z M294.72,256.274c-2.56,0-4.267-1.707-4.267-4.267v-4.267
	h-12.8c-2.56,0-4.267-1.707-4.267-4.267c0-2.56,1.707-4.267,4.267-4.267h34.133c2.56,0,4.267,1.707,4.267,4.267
	c0,2.56-1.707,4.267-4.267,4.267h-12.8v4.267C298.987,254.567,297.28,256.274,294.72,256.274z M209.387,256.274
	c-2.56,0-4.267-1.707-4.267-4.267v-4.267h-12.8c-2.56,0-4.267-1.707-4.267-4.267c0-2.56,1.707-4.267,4.267-4.267h34.133
	c2.56,0,4.267,1.707,4.267,4.267c0,2.56-1.707,4.267-4.267,4.267h-12.8v4.267C213.653,254.567,211.947,256.274,209.387,256.274z
	 M252.053,213.607C130.027,213.607,0.32,193.98,0.32,158.14c0-28.16,76.8-42.667,122.88-47.787c2.56,0,4.267,1.707,5.12,3.413
	c0.853,1.707-1.707,4.267-3.413,5.12C44.693,129.127,8.853,146.194,8.853,158.14c0,22.187,99.84,46.933,243.2,46.933
	s243.2-24.747,243.2-46.933c0-12.8-35.84-29.867-115.2-39.253c-2.56,0-4.267-2.56-3.413-5.12c0-2.56,2.56-4.267,5.12-3.413
	c46.08,5.973,122.027,19.627,122.027,47.787C503.787,193.98,374.08,213.607,252.053,213.607z M252.053,179.474
	c-76.8,0-111.787-17.067-112.64-17.92c-1.707-0.853-2.56-2.56-2.56-3.413v-0.853c0.853-6.827,27.307-157.013,115.2-157.013
	c146.773,0,157.867,55.467,157.867,72.533l0,0l0,0l0,0l0,0l0,0l0,0l0,0c0,0.853,0,1.707-0.853,2.56l0,0l0,0l0,0l0,0
	c0,0,0,0-0.853,0.853l0,0l0,0l-0.853,0.853c-7.68,4.267-21.333,5.12-34.133,4.267c-12.8,0-23.04-1.707-29.013-2.56
	c17.92,37.547,23.04,76.8,23.04,79.36s-1.707,4.267-3.413,5.12c-2.56,0-4.267-1.707-5.12-3.413c0-0.853-8.533-67.413-41.813-108.373
	c-1.707-1.707-0.853-4.267,0.853-5.973c1.707-1.707,4.267-0.853,5.973,0.853c5.973,7.68,11.093,15.36,15.36,23.893c0,0,0,0,0.853,0
	c6.827,0.853,20.48,3.413,34.133,3.413c8.533,0,17.92-0.853,27.307-2.56c-1.707-17.92-19.627-60.587-149.333-60.587
	c-74.24,0-101.547,124.587-105.813,146.773c9.387,4.267,43.52,15.36,105.813,15.36c28.16,0,53.76-2.56,75.947-6.827
	c2.56-0.853,4.267,0.853,5.12,3.413v0.853c0,1.707-1.707,3.413-3.413,4.267C306.667,176.914,281.067,179.474,252.053,179.474z"/>
</svg>